<?xml version="1.0" encoding="UTF-8" standalone="no"?>
<!DOCTYPE svg PUBLIC "-//W3C//DTD SVG 1.1//EN"
 "http://www.w3.org/Graphics/SVG/1.1/DTD/svg11.dtd">
<!-- Generated by graphviz version 12.2.1 (20241206.2353)
 -->
<!-- Title: G Pages: 1 -->
<svg width="758pt" height="498pt"
 viewBox="0.00 0.00 757.77 497.50" xmlns="http://www.w3.org/2000/svg" xmlns:xlink="http://www.w3.org/1999/xlink">
<g id="graph0" class="graph" transform="scale(1 1) rotate(0) translate(4 493.5)">
<title>G</title>
<polygon fill="white" stroke="none" points="-4,4 -4,-493.5 753.77,-493.5 753.77,4 -4,4"/>
<!-- Serve people with nut allergies? -->
<g id="node1" class="node">
<title>Serve people with nut allergies?</title>
<ellipse fill="none" stroke="black" cx="391.78" cy="-252.5" rx="130.17" ry="18"/>
<text text-anchor="middle" x="391.78" y="-247.45" font-family="Times New Roman,serif" font-size="14.00">Serve people with nut allergies?</text>
</g>
<!-- stir chocolate chips and nuts into the cookie dough -->
<g id="node5" class="node">
<title>stir chocolate chips and nuts into the cookie dough</title>
<ellipse fill="none" stroke="black" cx="199.78" cy="-164" rx="199.78" ry="18"/>
<text text-anchor="middle" x="199.78" y="-158.95" font-family="Times New Roman,serif" font-size="14.00">stir chocolate chips and nuts into the cookie dough</text>
</g>
<!-- Serve people with nut allergies?&#45;&gt;stir chocolate chips and nuts into the cookie dough -->
<g id="edge3" class="edge">
<title>Serve people with nut allergies?&#45;&gt;stir chocolate chips and nuts into the cookie dough</title>
<path fill="none" stroke="black" d="M354.76,-234.82C324.37,-221.13 281.12,-201.65 248.02,-186.74"/>
<polygon fill="black" stroke="black" points="249.6,-183.61 239.05,-182.69 246.73,-189.99 249.6,-183.61"/>
<text text-anchor="middle" x="321.22" y="-203.2" font-family="Times New Roman,serif" font-size="14.00">No</text>
</g>
<!-- stir chocolate chips into the cookie dough -->
<g id="node6" class="node">
<title>stir chocolate chips into the cookie dough</title>
<ellipse fill="none" stroke="black" cx="583.78" cy="-164" rx="166" ry="18"/>
<text text-anchor="middle" x="583.78" y="-158.95" font-family="Times New Roman,serif" font-size="14.00">stir chocolate chips into the cookie dough</text>
</g>
<!-- Serve people with nut allergies?&#45;&gt;stir chocolate chips into the cookie dough -->
<g id="edge4" class="edge">
<title>Serve people with nut allergies?&#45;&gt;stir chocolate chips into the cookie dough</title>
<path fill="none" stroke="black" d="M428.8,-234.82C459.28,-221.09 502.71,-201.52 535.85,-186.59"/>
<polygon fill="black" stroke="black" points="537.16,-189.84 544.83,-182.54 534.28,-183.46 537.16,-189.84"/>
<text text-anchor="middle" x="515.1" y="-203.2" font-family="Times New Roman,serif" font-size="14.00">Yes</text>
</g>
<!-- ExclusiveGateway -->
<g id="node2" class="node">
<title>ExclusiveGateway</title>
<ellipse fill="none" stroke="black" cx="390.78" cy="-91" rx="80.01" ry="18"/>
<text text-anchor="middle" x="390.78" y="-85.95" font-family="Times New Roman,serif" font-size="14.00">ExclusiveGateway</text>
</g>
<!-- EndEvent -->
<g id="node7" class="node">
<title>EndEvent</title>
<ellipse fill="none" stroke="black" cx="390.78" cy="-18" rx="47.26" ry="18"/>
<text text-anchor="middle" x="390.78" y="-12.95" font-family="Times New Roman,serif" font-size="14.00">EndEvent</text>
</g>
<!-- ExclusiveGateway&#45;&gt;EndEvent -->
<g id="edge7" class="edge">
<title>ExclusiveGateway&#45;&gt;EndEvent</title>
<path fill="none" stroke="black" d="M390.78,-72.81C390.78,-65.23 390.78,-56.1 390.78,-47.54"/>
<polygon fill="black" stroke="black" points="394.28,-47.54 390.78,-37.54 387.28,-47.54 394.28,-47.54"/>
</g>
<!-- Add dry ingredients to the mixer bowl -->
<g id="node3" class="node">
<title>Add dry ingredients to the mixer bowl</title>
<ellipse fill="none" stroke="black" cx="391.78" cy="-398.5" rx="154.22" ry="18"/>
<text text-anchor="middle" x="391.78" y="-393.45" font-family="Times New Roman,serif" font-size="14.00">Add dry ingredients to the mixer bowl</text>
</g>
<!-- Beat until all ingredients are combined -->
<g id="node4" class="node">
<title>Beat until all ingredients are combined</title>
<ellipse fill="none" stroke="black" cx="391.78" cy="-325.5" rx="155.76" ry="18"/>
<text text-anchor="middle" x="391.78" y="-320.45" font-family="Times New Roman,serif" font-size="14.00">Beat until all ingredients are combined</text>
</g>
<!-- Add dry ingredients to the mixer bowl&#45;&gt;Beat until all ingredients are combined -->
<g id="edge1" class="edge">
<title>Add dry ingredients to the mixer bowl&#45;&gt;Beat until all ingredients are combined</title>
<path fill="none" stroke="black" d="M391.78,-380.31C391.78,-372.73 391.78,-363.6 391.78,-355.04"/>
<polygon fill="black" stroke="black" points="395.28,-355.04 391.78,-345.04 388.28,-355.04 395.28,-355.04"/>
</g>
<!-- Beat until all ingredients are combined&#45;&gt;Serve people with nut allergies? -->
<g id="edge2" class="edge">
<title>Beat until all ingredients are combined&#45;&gt;Serve people with nut allergies?</title>
<path fill="none" stroke="black" d="M391.78,-307.31C391.78,-299.73 391.78,-290.6 391.78,-282.04"/>
<polygon fill="black" stroke="black" points="395.28,-282.04 391.78,-272.04 388.28,-282.04 395.28,-282.04"/>
</g>
<!-- stir chocolate chips and nuts into the cookie dough&#45;&gt;ExclusiveGateway -->
<g id="edge5" class="edge">
<title>stir chocolate chips and nuts into the cookie dough&#45;&gt;ExclusiveGateway</title>
<path fill="none" stroke="black" d="M245.53,-145.99C274.03,-135.4 310.74,-121.75 340.12,-110.83"/>
<polygon fill="black" stroke="black" points="341.01,-114.23 349.17,-107.47 338.57,-107.67 341.01,-114.23"/>
</g>
<!-- stir chocolate chips into the cookie dough&#45;&gt;ExclusiveGateway -->
<g id="edge6" class="edge">
<title>stir chocolate chips into the cookie dough&#45;&gt;ExclusiveGateway</title>
<path fill="none" stroke="black" d="M538.53,-146.35C509.55,-135.69 471.89,-121.84 441.85,-110.79"/>
<polygon fill="black" stroke="black" points="443.16,-107.54 432.57,-107.38 440.75,-114.11 443.16,-107.54"/>
</g>
<!-- StartEvent -->
<g id="node8" class="node">
<title>StartEvent</title>
<ellipse fill="none" stroke="black" cx="391.78" cy="-471.5" rx="49.82" ry="18"/>
<text text-anchor="middle" x="391.78" y="-466.45" font-family="Times New Roman,serif" font-size="14.00">StartEvent</text>
</g>
<!-- StartEvent&#45;&gt;Add dry ingredients to the mixer bowl -->
<g id="edge8" class="edge">
<title>StartEvent&#45;&gt;Add dry ingredients to the mixer bowl</title>
<path fill="none" stroke="black" d="M391.78,-453.31C391.78,-445.73 391.78,-436.6 391.78,-428.04"/>
<polygon fill="black" stroke="black" points="395.28,-428.04 391.78,-418.04 388.28,-428.04 395.28,-428.04"/>
</g>
</g>
</svg>
