<?xml version="1.0" encoding="UTF-8" standalone="no"?>
<!DOCTYPE svg PUBLIC "-//W3C//DTD SVG 1.1//EN"
 "http://www.w3.org/Graphics/SVG/1.1/DTD/svg11.dtd">
<!-- Generated by graphviz version 12.2.1 (20241206.2353)
 -->
<!-- Title: G Pages: 1 -->
<svg width="768pt" height="476pt"
 viewBox="0.00 0.00 767.89 476.00" xmlns="http://www.w3.org/2000/svg" xmlns:xlink="http://www.w3.org/1999/xlink">
<g id="graph0" class="graph" transform="scale(1 1) rotate(0) translate(4 472)">
<title>G</title>
<polygon fill="white" stroke="none" points="-4,4 -4,-472 763.89,-472 763.89,4 -4,4"/>
<!-- Serve people with nut allergies? -->
<g id="node1" class="node">
<title>Serve people with nut allergies?</title>
<ellipse fill="none" stroke="black" cx="396.33" cy="-234" rx="130.17" ry="18"/>
<text text-anchor="middle" x="396.33" y="-228.95" font-family="Times New Roman,serif" font-size="14.00">Serve people with nut allergies?</text>
</g>
<!-- stir chocolate chips and nuts into the cookie dough  -->
<g id="node5" class="node">
<title>stir chocolate chips and nuts into the cookie dough </title>
<ellipse fill="none" stroke="black" cx="202.33" cy="-162" rx="202.33" ry="18"/>
<text text-anchor="middle" x="202.33" y="-156.95" font-family="Times New Roman,serif" font-size="14.00">stir chocolate chips and nuts into the cookie dough </text>
</g>
<!-- Serve people with nut allergies?&#45;&gt;stir chocolate chips and nuts into the cookie dough  -->
<g id="edge3" class="edge">
<title>Serve people with nut allergies?&#45;&gt;stir chocolate chips and nuts into the cookie dough </title>
<path fill="none" stroke="black" d="M351.34,-216.76C324.02,-206.91 288.9,-194.23 259.61,-183.67"/>
<polygon fill="black" stroke="black" points="261.13,-180.49 250.53,-180.39 258.75,-187.08 261.13,-180.49"/>
</g>
<!-- stir chocolate chips into the cookie dough  -->
<g id="node6" class="node">
<title>stir chocolate chips into the cookie dough </title>
<ellipse fill="none" stroke="black" cx="591.33" cy="-162" rx="168.56" ry="18"/>
<text text-anchor="middle" x="591.33" y="-156.95" font-family="Times New Roman,serif" font-size="14.00">stir chocolate chips into the cookie dough </text>
</g>
<!-- Serve people with nut allergies?&#45;&gt;stir chocolate chips into the cookie dough  -->
<g id="edge4" class="edge">
<title>Serve people with nut allergies?&#45;&gt;stir chocolate chips into the cookie dough </title>
<path fill="none" stroke="black" d="M441.56,-216.76C469.12,-206.87 504.58,-194.14 534.08,-183.55"/>
<polygon fill="black" stroke="black" points="535,-186.94 543.23,-180.27 532.64,-180.35 535,-186.94"/>
</g>
<!-- sid&#45;8993A030&#45;B3DB&#45;4B51&#45;97C9&#45;19A39D8A3A39 -->
<g id="node2" class="node">
<title>sid&#45;8993A030&#45;B3DB&#45;4B51&#45;97C9&#45;19A39D8A3A39</title>
<ellipse fill="none" stroke="black" cx="396.33" cy="-90" rx="202.85" ry="18"/>
<text text-anchor="middle" x="396.33" y="-84.95" font-family="Times New Roman,serif" font-size="14.00">sid&#45;8993A030&#45;B3DB&#45;4B51&#45;97C9&#45;19A39D8A3A39</text>
</g>
<!-- sid&#45;E3D7FD92&#45;8D68&#45;4B39&#45;89A6&#45;BF8B14216076 -->
<g id="node7" class="node">
<title>sid&#45;E3D7FD92&#45;8D68&#45;4B39&#45;89A6&#45;BF8B14216076</title>
<ellipse fill="none" stroke="black" cx="396.33" cy="-18" rx="199.26" ry="18"/>
<text text-anchor="middle" x="396.33" y="-12.95" font-family="Times New Roman,serif" font-size="14.00">sid&#45;E3D7FD92&#45;8D68&#45;4B39&#45;89A6&#45;BF8B14216076</text>
</g>
<!-- sid&#45;8993A030&#45;B3DB&#45;4B51&#45;97C9&#45;19A39D8A3A39&#45;&gt;sid&#45;E3D7FD92&#45;8D68&#45;4B39&#45;89A6&#45;BF8B14216076 -->
<g id="edge7" class="edge">
<title>sid&#45;8993A030&#45;B3DB&#45;4B51&#45;97C9&#45;19A39D8A3A39&#45;&gt;sid&#45;E3D7FD92&#45;8D68&#45;4B39&#45;89A6&#45;BF8B14216076</title>
<path fill="none" stroke="black" d="M396.33,-71.7C396.33,-64.41 396.33,-55.73 396.33,-47.54"/>
<polygon fill="black" stroke="black" points="399.83,-47.62 396.33,-37.62 392.83,-47.62 399.83,-47.62"/>
</g>
<!-- Add dry ingredients to the mixer bowl -->
<g id="node3" class="node">
<title>Add dry ingredients to the mixer bowl</title>
<ellipse fill="none" stroke="black" cx="396.33" cy="-378" rx="154.22" ry="18"/>
<text text-anchor="middle" x="396.33" y="-372.95" font-family="Times New Roman,serif" font-size="14.00">Add dry ingredients to the mixer bowl</text>
</g>
<!-- Beat until all ingredients are combined -->
<g id="node4" class="node">
<title>Beat until all ingredients are combined</title>
<ellipse fill="none" stroke="black" cx="396.33" cy="-306" rx="155.76" ry="18"/>
<text text-anchor="middle" x="396.33" y="-300.95" font-family="Times New Roman,serif" font-size="14.00">Beat until all ingredients are combined</text>
</g>
<!-- Add dry ingredients to the mixer bowl&#45;&gt;Beat until all ingredients are combined -->
<g id="edge1" class="edge">
<title>Add dry ingredients to the mixer bowl&#45;&gt;Beat until all ingredients are combined</title>
<path fill="none" stroke="black" d="M396.33,-359.7C396.33,-352.41 396.33,-343.73 396.33,-335.54"/>
<polygon fill="black" stroke="black" points="399.83,-335.62 396.33,-325.62 392.83,-335.62 399.83,-335.62"/>
</g>
<!-- Beat until all ingredients are combined&#45;&gt;Serve people with nut allergies? -->
<g id="edge2" class="edge">
<title>Beat until all ingredients are combined&#45;&gt;Serve people with nut allergies?</title>
<path fill="none" stroke="black" d="M396.33,-287.7C396.33,-280.41 396.33,-271.73 396.33,-263.54"/>
<polygon fill="black" stroke="black" points="399.83,-263.62 396.33,-253.62 392.83,-263.62 399.83,-263.62"/>
</g>
<!-- stir chocolate chips and nuts into the cookie dough &#45;&gt;sid&#45;8993A030&#45;B3DB&#45;4B51&#45;97C9&#45;19A39D8A3A39 -->
<g id="edge5" class="edge">
<title>stir chocolate chips and nuts into the cookie dough &#45;&gt;sid&#45;8993A030&#45;B3DB&#45;4B51&#45;97C9&#45;19A39D8A3A39</title>
<path fill="none" stroke="black" d="M249.3,-144.05C276.24,-134.33 310.29,-122.05 338.83,-111.75"/>
<polygon fill="black" stroke="black" points="339.83,-115.11 348.05,-108.42 337.45,-108.53 339.83,-115.11"/>
</g>
<!-- stir chocolate chips into the cookie dough &#45;&gt;sid&#45;8993A030&#45;B3DB&#45;4B51&#45;97C9&#45;19A39D8A3A39 -->
<g id="edge6" class="edge">
<title>stir chocolate chips into the cookie dough &#45;&gt;sid&#45;8993A030&#45;B3DB&#45;4B51&#45;97C9&#45;19A39D8A3A39</title>
<path fill="none" stroke="black" d="M544.63,-144.23C517.45,-134.48 482.97,-122.1 454.1,-111.74"/>
<polygon fill="black" stroke="black" points="455.36,-108.47 444.76,-108.38 452.99,-115.06 455.36,-108.47"/>
</g>
<!-- sid&#45;BB7AF9E4&#45;A845&#45;407A&#45;B3F1&#45;1352393CF42E -->
<g id="node8" class="node">
<title>sid&#45;BB7AF9E4&#45;A845&#45;407A&#45;B3F1&#45;1352393CF42E</title>
<ellipse fill="none" stroke="black" cx="396.33" cy="-450" rx="200.29" ry="18"/>
<text text-anchor="middle" x="396.33" y="-444.95" font-family="Times New Roman,serif" font-size="14.00">sid&#45;BB7AF9E4&#45;A845&#45;407A&#45;B3F1&#45;1352393CF42E</text>
</g>
<!-- sid&#45;BB7AF9E4&#45;A845&#45;407A&#45;B3F1&#45;1352393CF42E&#45;&gt;Add dry ingredients to the mixer bowl -->
<g id="edge8" class="edge">
<title>sid&#45;BB7AF9E4&#45;A845&#45;407A&#45;B3F1&#45;1352393CF42E&#45;&gt;Add dry ingredients to the mixer bowl</title>
<path fill="none" stroke="black" d="M396.33,-431.7C396.33,-424.41 396.33,-415.73 396.33,-407.54"/>
<polygon fill="black" stroke="black" points="399.83,-407.62 396.33,-397.62 392.83,-407.62 399.83,-407.62"/>
</g>
</g>
</svg>
