<?xml version="1.0" encoding="UTF-8" standalone="no"?>
<!DOCTYPE svg PUBLIC "-//W3C//DTD SVG 1.1//EN"
 "http://www.w3.org/Graphics/SVG/1.1/DTD/svg11.dtd">
<!-- Generated by graphviz version 12.2.1 (20241206.2353)
 -->
<!-- Title: G Pages: 1 -->
<svg width="1016pt" height="659pt"
 viewBox="0.00 0.00 1016.36 659.00" xmlns="http://www.w3.org/2000/svg" xmlns:xlink="http://www.w3.org/1999/xlink">
<g id="graph0" class="graph" transform="scale(1 1) rotate(0) translate(4 655)">
<title>G</title>
<polygon fill="white" stroke="none" points="-4,4 -4,-655 1012.36,-655 1012.36,4 -4,4"/>
<!-- Check quantity and quality -->
<g id="node1" class="node">
<title>Check quantity and quality</title>
<ellipse fill="none" stroke="black" cx="852.67" cy="-633" rx="111.23" ry="18"/>
<text text-anchor="middle" x="852.67" y="-627.95" font-family="Times New Roman,serif" font-size="14.00">Check quantity and quality</text>
</g>
<!-- Check of delivery -->
<g id="node7" class="node">
<title>Check of delivery</title>
<ellipse fill="none" stroke="black" cx="785.67" cy="-560" rx="77.45" ry="18"/>
<text text-anchor="middle" x="785.67" y="-554.95" font-family="Times New Roman,serif" font-size="14.00">Check of delivery</text>
</g>
<!-- Check quantity and quality&#45;&gt;Check of delivery -->
<g id="edge7" class="edge">
<title>Check quantity and quality&#45;&gt;Check of delivery</title>
<path fill="none" stroke="black" d="M836.45,-614.81C828.38,-606.27 818.48,-595.77 809.56,-586.32"/>
<polygon fill="black" stroke="black" points="812.18,-584 802.77,-579.13 807.09,-588.8 812.18,-584"/>
</g>
<!-- Delivery of the parts -->
<g id="node2" class="node">
<title>Delivery of the parts</title>
<ellipse fill="none" stroke="black" cx="920.67" cy="-252.5" rx="87.69" ry="18"/>
<text text-anchor="middle" x="920.67" y="-247.45" font-family="Times New Roman,serif" font-size="14.00">Delivery of the parts</text>
</g>
<!-- Delivery of the parts&#45;&gt;Check quantity and quality -->
<g id="edge2" class="edge">
<title>Delivery of the parts&#45;&gt;Check quantity and quality</title>
<path fill="none" stroke="black" d="M920.67,-270.72C920.67,-285.09 920.67,-306.13 920.67,-324.5 920.67,-561 920.67,-561 920.67,-561 920.67,-580.55 907.06,-596.81 892.02,-608.82"/>
<polygon fill="black" stroke="black" points="890.28,-605.75 884.3,-614.5 894.43,-611.39 890.28,-605.75"/>
</g>
<!-- Received &#160;an inquiry from the &#160;supplier -->
<g id="node3" class="node">
<title>Received &#160;an inquiry from the &#160;supplier</title>
<ellipse fill="none" stroke="black" cx="290.67" cy="-252.5" rx="157.81" ry="18"/>
<text text-anchor="middle" x="290.67" y="-247.45" font-family="Times New Roman,serif" font-size="14.00">Received &#160;an inquiry from the &#160;supplier</text>
</g>
<!-- Clarify questions with the department -->
<g id="node8" class="node">
<title>Clarify questions with the department</title>
<ellipse fill="none" stroke="black" cx="151.67" cy="-179.5" rx="151.67" ry="18"/>
<text text-anchor="middle" x="151.67" y="-174.45" font-family="Times New Roman,serif" font-size="14.00">Clarify questions with the department</text>
</g>
<!-- Received &#160;an inquiry from the &#160;supplier&#45;&gt;Clarify questions with the department -->
<g id="edge1" class="edge">
<title>Received &#160;an inquiry from the &#160;supplier&#45;&gt;Clarify questions with the department</title>
<path fill="none" stroke="black" d="M257.37,-234.49C238.63,-224.92 215.02,-212.86 194.87,-202.57"/>
<polygon fill="black" stroke="black" points="196.53,-199.49 186.04,-198.06 193.35,-205.72 196.53,-199.49"/>
</g>
<!-- No delivery &#160;within 5 working &#160;days -->
<g id="node4" class="node">
<title>No delivery &#160;within 5 working &#160;days</title>
<ellipse fill="none" stroke="black" cx="612.67" cy="-252.5" rx="146.04" ry="18"/>
<text text-anchor="middle" x="612.67" y="-247.45" font-family="Times New Roman,serif" font-size="14.00">No delivery &#160;within 5 working &#160;days</text>
</g>
<!-- Raise inquiry with the supplier -->
<g id="node9" class="node">
<title>Raise inquiry with the supplier</title>
<ellipse fill="none" stroke="black" cx="626.67" cy="-179.5" rx="125.56" ry="18"/>
<text text-anchor="middle" x="626.67" y="-174.45" font-family="Times New Roman,serif" font-size="14.00">Raise inquiry with the supplier</text>
</g>
<!-- No delivery &#160;within 5 working &#160;days&#45;&gt;Raise inquiry with the supplier -->
<g id="edge5" class="edge">
<title>No delivery &#160;within 5 working &#160;days&#45;&gt;Raise inquiry with the supplier</title>
<path fill="none" stroke="black" d="M616.05,-234.31C617.57,-226.64 619.39,-217.39 621.1,-208.74"/>
<polygon fill="black" stroke="black" points="624.51,-209.5 623.02,-199.01 617.65,-208.15 624.51,-209.5"/>
</g>
<!-- ExclusiveGateway -->
<g id="node5" class="node">
<title>ExclusiveGateway</title>
<ellipse fill="none" stroke="black" cx="612.67" cy="-398.5" rx="80.01" ry="18"/>
<text text-anchor="middle" x="612.67" y="-393.45" font-family="Times New Roman,serif" font-size="14.00">ExclusiveGateway</text>
</g>
<!-- EventBasedGateway -->
<g id="node13" class="node">
<title>EventBasedGateway</title>
<ellipse fill="none" stroke="black" cx="612.67" cy="-325.5" rx="87.69" ry="18"/>
<text text-anchor="middle" x="612.67" y="-320.45" font-family="Times New Roman,serif" font-size="14.00">EventBasedGateway</text>
</g>
<!-- ExclusiveGateway&#45;&gt;EventBasedGateway -->
<g id="edge4" class="edge">
<title>ExclusiveGateway&#45;&gt;EventBasedGateway</title>
<path fill="none" stroke="black" d="M612.67,-380.31C612.67,-372.73 612.67,-363.6 612.67,-355.04"/>
<polygon fill="black" stroke="black" points="616.17,-355.04 612.67,-345.04 609.17,-355.04 616.17,-355.04"/>
</g>
<!-- Delivery immediately &#160;possible? -->
<g id="node6" class="node">
<title>Delivery immediately &#160;possible?</title>
<ellipse fill="none" stroke="black" cx="710.67" cy="-106.5" rx="132.22" ry="18"/>
<text text-anchor="middle" x="710.67" y="-101.45" font-family="Times New Roman,serif" font-size="14.00">Delivery immediately &#160;possible?</text>
</g>
<!-- Delivery immediately &#160;possible?&#45;&gt;ExclusiveGateway -->
<g id="edge12" class="edge">
<title>Delivery immediately &#160;possible?&#45;&gt;ExclusiveGateway</title>
<path fill="none" stroke="black" d="M751.19,-123.86C772.67,-135.48 794.67,-153.49 794.67,-178.5 794.67,-326.5 794.67,-326.5 794.67,-326.5 794.67,-351.5 734.3,-371.25 683.1,-383.51"/>
<polygon fill="black" stroke="black" points="682.43,-380.07 673.48,-385.75 684.01,-386.89 682.43,-380.07"/>
<text text-anchor="middle" x="804.79" y="-247.45" font-family="Times New Roman,serif" font-size="14.00">Yes</text>
</g>
<!-- Delivery problems -->
<g id="node12" class="node">
<title>Delivery problems</title>
<ellipse fill="none" stroke="black" cx="710.67" cy="-18" rx="80.52" ry="18"/>
<text text-anchor="middle" x="710.67" y="-12.95" font-family="Times New Roman,serif" font-size="14.00">Delivery problems</text>
</g>
<!-- Delivery immediately &#160;possible?&#45;&gt;Delivery problems -->
<g id="edge11" class="edge">
<title>Delivery immediately &#160;possible?&#45;&gt;Delivery problems</title>
<path fill="none" stroke="black" d="M710.67,-88.41C710.67,-76.76 710.67,-61.05 710.67,-47.52"/>
<polygon fill="black" stroke="black" points="714.17,-47.86 710.67,-37.86 707.17,-47.86 714.17,-47.86"/>
<text text-anchor="middle" x="718.92" y="-57.2" font-family="Times New Roman,serif" font-size="14.00">No</text>
</g>
<!-- Request &#160;for &#160;replacement -->
<g id="node10" class="node">
<title>Request &#160;for &#160;replacement</title>
<ellipse fill="none" stroke="black" cx="785.67" cy="-471.5" rx="107.14" ry="18"/>
<text text-anchor="middle" x="785.67" y="-466.45" font-family="Times New Roman,serif" font-size="14.00">Request &#160;for &#160;replacement</text>
</g>
<!-- Check of delivery&#45;&gt;Request &#160;for &#160;replacement -->
<g id="edge15" class="edge">
<title>Check of delivery&#45;&gt;Request &#160;for &#160;replacement</title>
<path fill="none" stroke="black" d="M785.67,-541.91C785.67,-530.26 785.67,-514.55 785.67,-501.02"/>
<polygon fill="black" stroke="black" points="789.17,-501.36 785.67,-491.36 782.17,-501.36 789.17,-501.36"/>
<text text-anchor="middle" x="802.54" y="-510.7" font-family="Times New Roman,serif" font-size="14.00">Failed</text>
</g>
<!-- Parts received -->
<g id="node11" class="node">
<title>Parts received</title>
<ellipse fill="none" stroke="black" cx="597.67" cy="-471.5" rx="63.12" ry="18"/>
<text text-anchor="middle" x="597.67" y="-466.45" font-family="Times New Roman,serif" font-size="14.00">Parts received</text>
</g>
<!-- Check of delivery&#45;&gt;Parts received -->
<g id="edge16" class="edge">
<title>Check of delivery&#45;&gt;Parts received</title>
<path fill="none" stroke="black" d="M752.06,-543.54C720.76,-529.13 673.97,-507.61 640.11,-492.03"/>
<polygon fill="black" stroke="black" points="641.97,-489.03 631.42,-488.03 639.04,-495.39 641.97,-489.03"/>
<text text-anchor="middle" x="726.88" y="-510.7" font-family="Times New Roman,serif" font-size="14.00">Passed</text>
</g>
<!-- Clarify questions with the department&#45;&gt;ExclusiveGateway -->
<g id="edge14" class="edge">
<title>Clarify questions with the department&#45;&gt;ExclusiveGateway</title>
<path fill="none" stroke="black" d="M137.8,-197.73C123.96,-217.17 106.95,-248.88 123.67,-270.5 173.15,-334.48 405.14,-372.19 530.99,-388.27"/>
<polygon fill="black" stroke="black" points="530.22,-391.71 540.58,-389.48 531.1,-384.76 530.22,-391.71"/>
</g>
<!-- Raise inquiry with the supplier&#45;&gt;Delivery immediately &#160;possible? -->
<g id="edge6" class="edge">
<title>Raise inquiry with the supplier&#45;&gt;Delivery immediately &#160;possible?</title>
<path fill="none" stroke="black" d="M647,-161.31C657.34,-152.57 670.1,-141.78 681.48,-132.17"/>
<polygon fill="black" stroke="black" points="683.69,-134.88 689.07,-125.75 679.18,-129.53 683.69,-134.88"/>
</g>
<!-- Request &#160;for &#160;replacement&#45;&gt;ExclusiveGateway -->
<g id="edge13" class="edge">
<title>Request &#160;for &#160;replacement&#45;&gt;ExclusiveGateway</title>
<path fill="none" stroke="black" d="M746.41,-454.39C720.89,-443.91 687.45,-430.19 660.39,-419.09"/>
<polygon fill="black" stroke="black" points="661.97,-415.95 651.39,-415.39 659.31,-422.43 661.97,-415.95"/>
</g>
<!-- EventBasedGateway&#45;&gt;Delivery of the parts -->
<g id="edge8" class="edge">
<title>EventBasedGateway&#45;&gt;Delivery of the parts</title>
<path fill="none" stroke="black" d="M669.52,-311.39C721.31,-299.46 797.88,-281.8 852.85,-269.13"/>
<polygon fill="black" stroke="black" points="853.45,-272.59 862.41,-266.93 851.88,-265.76 853.45,-272.59"/>
</g>
<!-- EventBasedGateway&#45;&gt;Received &#160;an inquiry from the &#160;supplier -->
<g id="edge10" class="edge">
<title>EventBasedGateway&#45;&gt;Received &#160;an inquiry from the &#160;supplier</title>
<path fill="none" stroke="black" d="M554.35,-311.64C503.47,-300.42 429.09,-284.02 372.29,-271.5"/>
<polygon fill="black" stroke="black" points="373.18,-268.11 362.66,-269.37 371.67,-274.94 373.18,-268.11"/>
</g>
<!-- EventBasedGateway&#45;&gt;No delivery &#160;within 5 working &#160;days -->
<g id="edge9" class="edge">
<title>EventBasedGateway&#45;&gt;No delivery &#160;within 5 working &#160;days</title>
<path fill="none" stroke="black" d="M612.67,-307.31C612.67,-299.73 612.67,-290.6 612.67,-282.04"/>
<polygon fill="black" stroke="black" points="616.17,-282.04 612.67,-272.04 609.17,-282.04 616.17,-282.04"/>
</g>
<!-- Parts &#160;ordered -->
<g id="node14" class="node">
<title>Parts &#160;ordered</title>
<ellipse fill="none" stroke="black" cx="453.67" cy="-471.5" rx="62.61" ry="18"/>
<text text-anchor="middle" x="453.67" y="-466.45" font-family="Times New Roman,serif" font-size="14.00">Parts &#160;ordered</text>
</g>
<!-- Parts &#160;ordered&#45;&gt;ExclusiveGateway -->
<g id="edge3" class="edge">
<title>Parts &#160;ordered&#45;&gt;ExclusiveGateway</title>
<path fill="none" stroke="black" d="M486.61,-455.79C510.03,-445.33 541.78,-431.15 567.56,-419.64"/>
<polygon fill="black" stroke="black" points="568.75,-422.94 576.45,-415.67 565.9,-416.55 568.75,-422.94"/>
</g>
</g>
</svg>
